<svg xmlns="http://www.w3.org/2000/svg" version="1.1" xmlns:xlink="http://www.w3.org/1999/xlink" width="48px" height="48px"><svg xmlns="http://www.w3.org/2000/svg" xmlns:xlink="http://www.w3.org/1999/xlink" viewBox="0,0,256,256" width="48px" height="48px" fill-rule="nonzero"><g transform="translate(25.6,25.6) scale(0.8,0.8)"><g fill="#b89678" fill-rule="nonzero" stroke="none" stroke-width="1" stroke-linecap="butt" stroke-linejoin="miter" stroke-miterlimit="10" stroke-dasharray="" stroke-dashoffset="0" font-family="none" font-weight="none" font-size="none" text-anchor="none" style="mix-blend-mode: normal"><path d="M-32,288v-320h320v320z" id="SvgjsPath1005"></path></g><g fill="#242424" fill-rule="evenodd" stroke="none" stroke-width="1" stroke-linecap="butt" stroke-linejoin="miter" stroke-miterlimit="10" stroke-dasharray="" stroke-dashoffset="0" font-family="none" font-weight="none" font-size="none" text-anchor="none" style="mix-blend-mode: normal"><g transform="scale(10.66667,10.66667)"><path d="M22.75,12.75h-10v10h5.75c2.347,0 4.25,-1.903 4.25,-4.25zM1.25,12.75v5.75c0,2.347 1.903,4.25 4.25,4.25h5.75v-10zM15.5,19.75h4c0.414,0 0.75,-0.336 0.75,-0.75c0,-0.414 -0.336,-0.75 -0.75,-0.75h-4c-0.414,0 -0.75,0.336 -0.75,0.75c0,0.414 0.336,0.75 0.75,0.75zM7.561,17.5l0.884,-0.884c0.292,-0.293 0.292,-0.768 0,-1.061c-0.293,-0.292 -0.768,-0.292 -1.061,0l-0.884,0.884l-0.884,-0.884c-0.293,-0.292 -0.768,-0.292 -1.061,0c-0.292,0.293 -0.292,0.768 0,1.061l0.884,0.884l-0.884,0.884c-0.292,0.293 -0.292,0.768 0,1.061c0.293,0.292 0.768,0.292 1.061,0l0.884,-0.884l0.884,0.884c0.293,0.292 0.768,0.292 1.061,0c0.292,-0.293 0.292,-0.768 0,-1.061zM15.5,16.75h4c0.414,0 0.75,-0.336 0.75,-0.75c0,-0.414 -0.336,-0.75 -0.75,-0.75h-4c-0.414,0 -0.75,0.336 -0.75,0.75c0,0.414 0.336,0.75 0.75,0.75zM11.25,1.25h-5.75c-2.347,0 -4.25,1.903 -4.25,4.25v5.75h10zM12.75,1.25v10h10v-5.75c0,-2.347 -1.903,-4.25 -4.25,-4.25zM7.25,5.75v-1.25c0,-0.414 -0.336,-0.75 -0.75,-0.75c-0.414,0 -0.75,0.336 -0.75,0.75v1.25h-1.25c-0.414,0 -0.75,0.336 -0.75,0.75c0,0.414 0.336,0.75 0.75,0.75h1.25v1.25c0,0.414 0.336,0.75 0.75,0.75c0.414,0 0.75,-0.336 0.75,-0.75v-1.25h1.25c0.414,0 0.75,-0.336 0.75,-0.75c0,-0.414 -0.336,-0.75 -0.75,-0.75zM15.5,7.25h4c0.414,0 0.75,-0.336 0.75,-0.75c0,-0.414 -0.336,-0.75 -0.75,-0.75h-4c-0.414,0 -0.75,0.336 -0.75,0.75c0,0.414 0.336,0.75 0.75,0.75z"></path></g></g></g></svg><style>@media (prefers-color-scheme: light) { :root { filter: none; } }
@media (prefers-color-scheme: dark) { :root { filter: none; } }
</style></svg>