<svg xmlns="http://www.w3.org/2000/svg" xmlns:xlink="http://www.w3.org/1999/xlink" fill="#c3cbd4" version="1.1" viewBox="0 0 100 125">
  <path d="M 30 85.5 C 29.372 85.5 28.757 85.263 28.286 84.82 L 11.286 68.82 C 10.281 67.874 10.233 66.292 11.179 65.286 C 12.125 64.28 13.707 64.234 14.713 65.18 L 28.588 78.239 L 37.571 41.408 C 37.845 40.288 38.848 39.5 40 39.5 L 87 39.5 C 88.381 39.5 89.5 40.619 89.5 42 C 89.5 43.381 88.381 44.5 87 44.5 L 41.964 44.5 L 32.429 83.593 C 32.218 84.457 31.564 85.144 30.711 85.397 C 30.477 85.466 30.237 85.5 30 85.5 Z"></path>
</svg>